<svg xmlns="http://www.w3.org/2000/svg" xmlns:xlink="http://www.w3.org/1999/xlink" width="1024" zoomAndPan="magnify" viewBox="0 0 768 767.999994" height="1024" preserveAspectRatio="xMidYMid meet" version="1.2"><defs><clipPath id="1065a71648"><path d="M 157.710938 157.710938 L 610.289062 157.710938 L 610.289062 610.289062 L 157.710938 610.289062 Z M 157.710938 157.710938 "/></clipPath><clipPath id="956ac17432"><path d="M 384 157.710938 C 259.023438 157.710938 157.710938 259.023438 157.710938 384 C 157.710938 508.976562 259.023438 610.289062 384 610.289062 C 508.976562 610.289062 610.289062 508.976562 610.289062 384 C 610.289062 259.023438 508.976562 157.710938 384 157.710938 Z M 384 157.710938 "/></clipPath><clipPath id="6e485c4734"><path d="M 76.800781 76.800781 L 691.050781 76.800781 L 691.050781 691.050781 L 76.800781 691.050781 Z M 76.800781 76.800781 "/></clipPath></defs><g id="0e294813b2"><g clip-rule="nonzero" clip-path="url(#1065a71648)"><g clip-rule="nonzero" clip-path="url(#956ac17432)"><path style=" stroke:none;fill-rule:nonzero;fill:#ffffff;fill-opacity:1;" d="M 157.710938 157.710938 L 610.289062 157.710938 L 610.289062 610.289062 L 157.710938 610.289062 Z M 157.710938 157.710938 "/></g></g><g clip-rule="nonzero" clip-path="url(#6e485c4734)"><path style=" stroke:none;fill-rule:nonzero;fill:#39b54a;fill-opacity:1;" d="M 691.050781 383.925781 C 691.050781 553.582031 553.582031 691.050781 383.925781 691.050781 C 214.269531 691.050781 76.800781 553.582031 76.800781 383.925781 C 76.800781 214.269531 214.269531 76.800781 383.925781 76.800781 C 553.582031 76.800781 691.050781 214.269531 691.050781 383.925781 Z M 691.050781 383.925781 "/></g><path style=" stroke:none;fill-rule:nonzero;fill:#ffffff;fill-opacity:1;" d="M 570.042969 313.53125 L 377.660156 506.039062 L 356.160156 527.535156 C 342.769531 540.925781 320.902344 540.925781 307.511719 527.535156 L 197.808594 417.832031 C 185.152344 405.179688 185.152344 384.660156 197.808594 372.007812 C 210.460938 359.355469 230.976562 359.355469 243.628906 372.007812 L 331.714844 460.09375 L 524.097656 267.707031 C 536.75 255.054688 557.265625 255.054688 569.917969 267.707031 C 582.695312 280.363281 582.695312 300.878906 570.042969 313.53125 Z M 570.042969 313.53125 "/></g></svg>
