<svg xmlns="http://www.w3.org/2000/svg" xmlns:xlink="http://www.w3.org/1999/xlink" width="1024" zoomAndPan="magnify" viewBox="0 0 768 767.999994" height="1024" preserveAspectRatio="xMidYMid meet" version="1.2"><defs><clipPath id="ff03d42575"><path d="M 85.566406 88.421875 L 675 88.421875 L 675 675.015625 L 85.566406 675.015625 Z M 85.566406 88.421875 "/></clipPath><clipPath id="c7694470a5"><path d="M 380.292969 88.421875 C 217.519531 88.421875 85.566406 219.734375 85.566406 381.71875 C 85.566406 543.703125 217.519531 675.015625 380.292969 675.015625 C 543.0625 675.015625 675.015625 543.703125 675.015625 381.71875 C 675.015625 219.734375 543.0625 88.421875 380.292969 88.421875 Z M 380.292969 88.421875 "/></clipPath><clipPath id="768d3d00e9"><path d="M 76.800781 77 L 694.050781 77 L 694.050781 694.210938 L 76.800781 694.210938 Z M 76.800781 77 "/></clipPath></defs><g id="a4e8d03ac4"><g clip-rule="nonzero" clip-path="url(#ff03d42575)"><g clip-rule="nonzero" clip-path="url(#c7694470a5)"><path style=" stroke:none;fill-rule:nonzero;fill:#f3f6f9;fill-opacity:1;" d="M 85.566406 88.421875 L 674.453125 88.421875 L 674.453125 675.015625 L 85.566406 675.015625 Z M 85.566406 88.421875 "/></g></g><g clip-rule="nonzero" clip-path="url(#768d3d00e9)"><path style=" stroke:none;fill-rule:nonzero;fill:#737373;fill-opacity:1;" d="M 385.496094 119.945312 C 238.980469 119.945312 119.789062 239.140625 119.789062 385.65625 C 119.789062 532.167969 238.980469 651.363281 385.496094 651.363281 C 532.007812 651.363281 651.203125 532.167969 651.203125 385.65625 C 651.203125 239.140625 532.007812 119.945312 385.496094 119.945312 Z M 385.496094 694.296875 C 215.304688 694.296875 76.851562 555.84375 76.851562 385.65625 C 76.851562 215.464844 215.304688 77.011719 385.496094 77.011719 C 555.683594 77.011719 694.136719 215.464844 694.136719 385.65625 C 694.136719 555.84375 555.683594 694.296875 385.496094 694.296875 "/></g><path style=" stroke:none;fill-rule:nonzero;fill:#737373;fill-opacity:1;" d="M 385.496094 424.121094 C 373.640625 424.121094 364.027344 414.507812 364.027344 402.65625 L 364.027344 170.800781 C 364.027344 158.945312 373.640625 149.332031 385.496094 149.332031 C 397.347656 149.332031 406.960938 158.945312 406.960938 170.800781 L 406.960938 402.65625 C 406.960938 414.507812 397.347656 424.121094 385.496094 424.121094 "/><path style=" stroke:none;fill-rule:nonzero;fill:#737373;fill-opacity:1;" d="M 494.0625 535.878906 C 488.5625 535.878906 483.074219 533.785156 478.882812 529.589844 L 370.3125 421.023438 C 361.933594 412.636719 361.933594 399.046875 370.3125 390.664062 C 378.699219 382.28125 392.289062 382.28125 400.675781 390.664062 L 509.238281 499.226562 C 517.625 507.613281 517.625 521.207031 509.238281 529.589844 C 505.050781 533.785156 499.550781 535.878906 494.0625 535.878906 "/></g></svg>
