<svg xmlns="http://www.w3.org/2000/svg"  viewBox="0 0 48 48" width="48px" height="48px" fill-rule="evenodd" clip-rule="evenodd" baseProfile="basic"><path fill="#ef4823" fill-rule="evenodd" d="M6.736,32.891c6.247-5.374,20.273-21.172,23.718-23.106 c-2.058-3.3-4.333-5.965-6.559-5.541c-3.19,3.396-9.94,11.16-16.699,17.058C6.111,24.002,6.073,30.591,6.736,32.891z" clip-rule="evenodd"/><path fill="#4b7bb2" fill-rule="evenodd" d="M34.961,42.034c-0.04-3.799-0.042-7.605,0.145-11.4 c0.063-1.269,0.131-2.508,0.108-3.78c-0.007-0.418,0.113-1.047-0.059-1.436c-0.44-1.003-1.754-1.856-2.514-2.592 c-1.777-1.721-3.446-3.546-5.21-5.279c-0.643-0.632-2.594-2.633-2.594-2.633s2.142-2.078,3.238-3.096 c0.185-0.172,2.371-2.487,2.371-2.487s2.34,2.403,3.192,3.298c1.537,1.616,3.208,3.112,4.789,4.685 c1.378,1.371,3.42,2.98,4.313,4.768c0.662,1.325,0.406,2.997,0.437,4.423c0.073,3.41,0.011,6.845-0.049,10.256 c-0.027,1.526,0.103,3.368-1.123,4.528c-1.159,1.097-3.273,0.848-4.749,0.814L34.961,42.034z" clip-rule="evenodd"/><polygon fill="#39b47b" fill-rule="evenodd" points="14.451,34.345 35.016,34.126 34.966,42.092 15.074,41.739" clip-rule="evenodd"/><path fill="#febf0e" fill-rule="evenodd" d="M14.61,25.413c-0.104,3.92-0.203,7.856-0.219,11.776 c-0.005,1.132,0.187,4.398,0.046,4.629c-0.088,0.143-2.661,0.375-3.566,0.279c-1.024-0.108-2.565-0.207-3.375-0.9 c-1.34-1.146-0.864-2.719-0.876-4.317c-0.01-1.242-0.083-2.884-0.012-4.126L14.61,25.413z" clip-rule="evenodd"/><path fill="#010101" d="M43.624,26.439c-0.007-0.328,0.001-0.67,0.01-1.017c0.029-1.169,0.062-2.494-0.5-3.619	c-0.726-1.452-2.131-2.76-3.371-3.914c-0.366-0.341-0.719-0.669-1.037-0.985c-0.629-0.626-1.272-1.24-1.916-1.854	c-0.956-0.912-1.944-1.854-2.864-2.822c-0.853-0.896-3.196-3.302-3.196-3.302c-0.028-0.028-0.063-0.045-0.096-0.065	c-0.128-0.158-0.304-0.359-0.55-0.639c-0.265-0.3-0.542-0.615-0.687-0.788c-0.142-0.17-0.295-0.362-0.458-0.566	c-1.142-1.435-2.867-3.604-4.975-3.073C22.767,4.1,21.734,5.3,20.979,6.176l-1.755,2.02c-0.921,1.056-1.842,2.112-2.751,3.179	c-2.092,2.453-3.941,4.384-5.818,6.078c-0.249,0.224-0.514,0.453-0.787,0.688c-1.331,1.148-2.839,2.449-3.472,4.102	c-0.708,1.846-0.58,3.928-0.456,5.941c0.04,0.649,0.079,1.287,0.087,1.895l0.013,3.068c0,0.106,0.035,0.206,0.094,0.288	c-0.016,0.753,0.001,1.583,0.017,2.336c0.008,0.399,0.016,0.785,0.019,1.137c0.002,0.333-0.017,0.664-0.036,0.99	C6.061,39.196,5.983,40.54,7.223,41.6c0.861,0.736,2.317,0.883,3.379,0.99l0.269,0.027c0.007,0.001,0.186,0.005,0.464,0.005	c0.765,0,2.278-0.034,3.08-0.257c1.469,0.025,3.066,0.047,4.637,0.068l3.511,0.05c2.014,0.03,4.167,0.063,6.371,0.063	c1.923,0,3.883-0.028,5.82-0.1c0.044,0.015,0.089,0.03,0.138,0.031l2.878,0.088c0.352,0.014,0.724,0.029,1.102,0.029	c1.232,0,2.532-0.155,3.424-0.999c1.252-1.185,1.265-2.968,1.274-4.4l0.006-0.561C43.635,33.291,43.696,29.833,43.624,26.439z M34.676,26.359c-0.01,0.161-0.019,0.315-0.017,0.45c0.021,1.156-0.035,2.271-0.093,3.452l-0.015,0.294	c-0.05,1.024-0.086,2.046-0.112,3.062c-5.436-0.327-10.206-0.272-15.24-0.21c-1.386,0.017-2.787,0.033-4.208,0.042	c0.041-2.609,0.097-5.237,0.168-7.916c0.259-0.287,0.522-0.574,0.775-0.858c0.637-0.716,1.274-1.432,1.939-2.123	c0.748-0.777,1.463-1.575,2.178-2.371c1.228-1.368,2.497-2.783,3.898-4.036c0.248-0.221,0.478-0.46,0.717-0.69	c0.536,0.549,1.85,1.892,2.359,2.393c0.822,0.809,1.625,1.637,2.426,2.465c0.918,0.949,1.837,1.897,2.786,2.817	c0.223,0.216,0.491,0.442,0.772,0.678c0.639,0.537,1.363,1.144,1.632,1.756C34.716,25.729,34.694,26.078,34.676,26.359z M7.331,22.601c0.543-1.418,1.951-2.632,3.192-3.703c0.278-0.24,0.549-0.474,0.803-0.704c1.91-1.723,3.788-3.684,5.909-6.171	c0.907-1.063,1.826-2.117,2.744-3.17l1.759-2.024c0.667-0.774,1.58-1.835,2.491-2.064c0.135-0.034,0.27-0.05,0.404-0.05	c1.337,0,2.6,1.588,3.546,2.776c0.168,0.212,0.326,0.41,0.473,0.585c0.149,0.178,0.432,0.5,0.703,0.808	c0.126,0.143,0.243,0.276,0.347,0.395c-0.506,0.535-1.098,1.159-1.513,1.594c-0.181,0.152-0.363,0.302-0.545,0.452	c-0.28,0.23-0.552,0.454-0.805,0.674c-0.667,0.581-1.296,1.208-1.903,1.813c-0.541,0.539-1.081,1.078-1.651,1.588	c-1.442,1.29-2.73,2.725-3.975,4.113c-0.707,0.788-1.415,1.577-2.155,2.346c-0.673,0.7-1.32,1.425-1.966,2.151	c-0.921,1.034-1.873,2.104-2.888,3.067c-0.722,0.685-1.474,1.332-2.201,1.957c-1.024,0.881-2.076,1.786-3.063,2.814l-0.007-1.78	c-0.008-0.627-0.048-1.282-0.089-1.947C6.822,26.215,6.701,24.243,7.331,22.601z M10.976,41.624l-0.273-0.028	c-0.932-0.094-2.207-0.222-2.83-0.755c-0.863-0.738-0.808-1.686-0.739-2.885c0.021-0.348,0.041-0.701,0.038-1.056	c-0.003-0.357-0.011-0.747-0.02-1.15c-0.017-0.826-0.033-1.737-0.008-2.527c1.114-1.274,2.326-2.328,3.607-3.43	c0.736-0.633,1.497-1.288,2.237-1.989c0.395-0.375,0.77-0.771,1.145-1.165c-0.093,3.58-0.175,7.102-0.19,10.573	c-0.002,0.402,0.021,1.07,0.045,1.778c0.027,0.804,0.066,1.948,0.049,2.463C13.385,41.558,11.686,41.697,10.976,41.624z M22.578,41.485l-3.513-0.05c-1.361-0.018-2.728-0.038-4.028-0.059c0.009-0.436-0.007-1.153-0.05-2.421	c-0.023-0.693-0.046-1.347-0.044-1.74c0.004-0.915,0.024-1.844,0.036-2.765c1.429-0.009,2.838-0.025,4.233-0.042	c5.029-0.062,9.793-0.117,15.211,0.211c-0.044,2.338-0.041,4.634-0.02,6.839C30.372,41.596,26.244,41.54,22.578,41.485z M42.575,36.697L42.57,37.19c-0.009,1.371-0.019,2.789-0.962,3.68c-0.859,0.814-2.488,0.75-3.798,0.698l-2.408-0.074	c-0.034-3.47-0.034-7.173,0.149-10.89l0.015-0.293c0.06-1.198,0.116-2.33,0.094-3.519c-0.002-0.11,0.006-0.237,0.015-0.37	c0.026-0.409,0.055-0.873-0.115-1.259c-0.362-0.826-1.182-1.513-1.904-2.12c-0.262-0.22-0.512-0.429-0.72-0.63	c-0.941-0.912-1.853-1.854-2.764-2.794c-0.808-0.834-1.615-1.668-2.443-2.482c-0.471-0.463-1.646-1.663-2.236-2.268	c0.656-0.634,2.054-1.981,2.87-2.739c0.055-0.051,0.255-0.258,0.517-0.531c0.562-0.474,1.115-0.99,1.573-1.545	c0.71,0.73,2.143,2.205,2.771,2.866c0.937,0.984,1.934,1.936,2.898,2.856c0.638,0.609,1.276,1.218,1.901,1.839	c0.325,0.323,0.686,0.66,1.061,1.008c1.178,1.096,2.513,2.338,3.158,3.629c0.451,0.901,0.422,2.042,0.395,3.146	c-0.009,0.363-0.018,0.72-0.011,1.063C42.696,29.834,42.635,33.283,42.575,36.697z"/></svg>