<svg xmlns="http://www.w3.org/2000/svg" xmlns:xlink="http://www.w3.org/1999/xlink" width="1024" zoomAndPan="magnify" viewBox="0 0 768 767.999994" height="1024" preserveAspectRatio="xMidYMid meet" version="1.2"><defs><clipPath id="96672f1aea"><path d="M 89.441406 181.816406 L 673 181.816406 L 673 516.730469 L 89.441406 516.730469 Z M 89.441406 181.816406 "/></clipPath><clipPath id="d8d1e01763"><path d="M 73.449219 166.613281 L 694.449219 166.613281 L 694.449219 192 L 73.449219 192 Z M 73.449219 166.613281 "/></clipPath><clipPath id="ac6159f932"><path d="M 272 570 L 496 570 L 496 601.613281 L 272 601.613281 Z M 272 570 "/></clipPath><clipPath id="2eee846027"><path d="M 73.449219 508 L 694.449219 508 L 694.449219 534 L 73.449219 534 Z M 73.449219 508 "/></clipPath><clipPath id="bc2851eac0"><path d="M 73.449219 166.613281 L 99 166.613281 L 99 534 L 73.449219 534 Z M 73.449219 166.613281 "/></clipPath><clipPath id="efd12d34a8"><path d="M 669 166.613281 L 694.449219 166.613281 L 694.449219 534 L 669 534 Z M 669 166.613281 "/></clipPath></defs><g id="43088bb591"><g clip-rule="nonzero" clip-path="url(#96672f1aea)"><path style=" stroke:none;fill-rule:nonzero;fill:#ffffff;fill-opacity:1;" d="M 89.441406 181.816406 L 672.921875 181.816406 L 672.921875 516.730469 L 89.441406 516.730469 Z M 89.441406 181.816406 "/></g><g clip-rule="nonzero" clip-path="url(#d8d1e01763)"><path style=" stroke:none;fill-rule:nonzero;fill:#000000;fill-opacity:1;" d="M 73.449219 166.855469 L 694.101562 166.855469 L 694.101562 191.699219 L 73.449219 191.699219 Z M 73.449219 166.855469 "/></g><path style=" stroke:none;fill-rule:nonzero;fill:#000000;fill-opacity:1;" d="M 340.324219 533.289062 L 427.21875 533.289062 L 427.21875 570.5625 L 340.324219 570.5625 Z M 340.324219 533.289062 "/><g clip-rule="nonzero" clip-path="url(#ac6159f932)"><path style=" stroke:none;fill-rule:nonzero;fill:#000000;fill-opacity:1;" d="M 272.058594 570.5625 L 495.484375 570.5625 L 495.484375 601.613281 L 272.058594 601.613281 Z M 272.058594 570.5625 "/></g><g clip-rule="nonzero" clip-path="url(#2eee846027)"><path style=" stroke:none;fill-rule:nonzero;fill:#000000;fill-opacity:1;" d="M 73.449219 508.453125 L 694.101562 508.453125 L 694.101562 533.296875 L 73.449219 533.296875 Z M 73.449219 508.453125 "/></g><g clip-rule="nonzero" clip-path="url(#bc2851eac0)"><path style=" stroke:none;fill-rule:nonzero;fill:#000000;fill-opacity:1;" d="M 73.449219 166.855469 L 98.273438 166.855469 L 98.273438 533.289062 L 73.449219 533.289062 Z M 73.449219 166.855469 "/></g><g clip-rule="nonzero" clip-path="url(#efd12d34a8)"><path style=" stroke:none;fill-rule:nonzero;fill:#000000;fill-opacity:1;" d="M 669.277344 166.855469 L 694.101562 166.855469 L 694.101562 533.289062 L 669.277344 533.289062 Z M 669.277344 166.855469 "/></g></g></svg>
