<svg xmlns="http://www.w3.org/2000/svg" xmlns:xlink="http://www.w3.org/1999/xlink" width="1024" zoomAndPan="magnify" viewBox="0 0 768 767.999994" height="1024" preserveAspectRatio="xMidYMid meet" version="1.2"><defs><clipPath id="9be3ac7925"><path d="M 279.757812 200.023438 L 488.242188 200.023438 L 488.242188 408.507812 L 279.757812 408.507812 Z M 279.757812 200.023438 "/></clipPath><clipPath id="f73ae15d59"><path d="M 384 200.023438 C 326.429688 200.023438 279.757812 246.695312 279.757812 304.265625 C 279.757812 361.839844 326.429688 408.507812 384 408.507812 C 441.570312 408.507812 488.242188 361.839844 488.242188 304.265625 C 488.242188 246.695312 441.570312 200.023438 384 200.023438 Z M 384 200.023438 "/></clipPath></defs><g id="2e44d8bf85"><g clip-rule="nonzero" clip-path="url(#9be3ac7925)"><g clip-rule="nonzero" clip-path="url(#f73ae15d59)"><path style=" stroke:none;fill-rule:nonzero;fill:#ffffff;fill-opacity:1;" d="M 279.757812 200.023438 L 488.242188 200.023438 L 488.242188 408.507812 L 279.757812 408.507812 Z M 279.757812 200.023438 "/></g></g><path style=" stroke:none;fill-rule:nonzero;fill:#000000;fill-opacity:1;" d="M 383.820312 511.820312 C 375.679688 511.84375 367.5625 511.378906 359.476562 510.425781 C 351.386719 509.476562 343.386719 508.042969 335.46875 506.128906 C 327.554688 504.214844 319.78125 501.832031 312.152344 498.984375 C 304.519531 496.136719 297.089844 492.839844 289.855469 489.097656 C 286.445312 487.355469 283.089844 485.519531 279.78125 483.589844 C 276.476562 481.664062 273.226562 479.640625 270.035156 477.53125 C 266.839844 475.421875 263.707031 473.222656 260.636719 470.941406 C 257.5625 468.65625 254.558594 466.289062 251.617188 463.835938 C 248.679688 461.382812 245.808594 458.851562 243.007812 456.238281 C 240.210938 453.628906 237.484375 450.941406 234.835938 448.179688 C 232.1875 445.414062 229.613281 442.578125 227.121094 439.671875 C 224.628906 436.765625 222.222656 433.792969 219.894531 430.753906 C 217.566406 427.714844 215.328125 424.609375 213.171875 421.445312 C 211.015625 418.28125 208.953125 415.058594 206.976562 411.777344 C 205 408.496094 203.121094 405.164062 201.328125 401.78125 C 199.539062 398.394531 197.84375 394.960938 196.246094 391.484375 C 194.644531 388.003906 193.144531 384.484375 191.742188 380.921875 C 190.335938 377.359375 189.035156 373.757812 187.828125 370.125 C 186.625 366.488281 185.523438 362.820312 184.523438 359.125 C 183.523438 355.429688 182.628906 351.707031 181.835938 347.960938 C 181.042969 344.214844 180.355469 340.449219 179.769531 336.664062 C 179.1875 332.878906 178.710938 329.082031 178.335938 325.269531 C 177.964844 321.457031 177.699219 317.640625 177.539062 313.8125 C 177.378906 309.988281 177.324219 306.160156 177.378906 302.328125 C 177.429688 298.5 177.589844 294.675781 177.855469 290.855469 C 178.121094 287.035156 178.492188 283.222656 178.96875 279.425781 C 179.445312 275.625 180.027344 271.839844 180.714844 268.074219 C 181.402344 264.308594 182.191406 260.5625 183.089844 256.839844 C 183.984375 253.113281 184.980469 249.417969 186.082031 245.75 C 187.183594 242.082031 188.386719 238.449219 189.6875 234.847656 C 190.992188 231.246094 192.394531 227.6875 193.894531 224.164062 C 195.394531 220.640625 196.992188 217.160156 198.6875 213.726562 C 200.382812 210.292969 202.171875 206.910156 204.054688 203.574219 C 205.933594 200.242188 207.910156 196.960938 209.972656 193.738281 C 212.039062 190.511719 214.191406 187.347656 216.433594 184.242188 C 218.671875 181.140625 220.996094 178.097656 223.40625 175.125 C 225.816406 172.148438 228.308594 169.242188 230.878906 166.40625 C 233.449219 163.570312 236.097656 160.804688 238.824219 158.117188 C 241.546875 155.429688 244.34375 152.816406 247.214844 150.28125 C 250.085938 147.75 253.023438 145.296875 256.027344 142.925781 C 259.035156 140.558594 262.105469 138.273438 265.238281 136.074219 C 268.371094 133.875 271.5625 131.765625 274.8125 129.742188 C 278.0625 127.722656 281.367188 125.792969 284.726562 123.953125 C 288.082031 122.117188 291.488281 120.375 294.945312 118.726562 C 298.398438 117.078125 301.898438 115.527344 305.4375 114.074219 C 308.976562 112.621094 312.558594 111.265625 316.171875 110.011719 C 319.789062 108.757812 323.4375 107.605469 327.117188 106.554688 C 330.796875 105.503906 334.503906 104.554688 338.238281 103.710938 C 341.96875 102.863281 345.722656 102.125 349.496094 101.488281 C 353.269531 100.851562 357.058594 100.324219 360.863281 99.898438 C 364.667969 99.472656 368.480469 99.152344 372.300781 98.941406 C 376.121094 98.726562 379.945312 98.621094 383.773438 98.621094 C 387.601562 98.621094 391.425781 98.726562 395.246094 98.941406 C 399.066406 99.152344 402.878906 99.472656 406.683594 99.898438 C 410.484375 100.324219 414.273438 100.851562 418.050781 101.488281 C 421.824219 102.125 425.578125 102.863281 429.308594 103.710938 C 433.042969 104.554688 436.75 105.503906 440.429688 106.554688 C 444.109375 107.605469 447.757812 108.757812 451.375 110.011719 C 454.988281 111.265625 458.566406 112.621094 462.109375 114.074219 C 465.648438 115.527344 469.148438 117.078125 472.601562 118.726562 C 476.054688 120.375 479.460938 122.117188 482.820312 123.953125 C 486.179688 125.792969 489.480469 127.722656 492.734375 129.742188 C 495.984375 131.765625 499.175781 133.875 502.308594 136.074219 C 505.441406 138.273438 508.511719 140.558594 511.515625 142.925781 C 514.523438 145.296875 517.460938 147.75 520.332031 150.28125 C 523.203125 152.816406 526 155.429688 528.722656 158.117188 C 531.449219 160.804688 534.097656 163.570312 536.667969 166.40625 C 539.238281 169.242188 541.730469 172.148438 544.136719 175.125 C 546.546875 178.097656 548.875 181.140625 551.113281 184.242188 C 553.355469 187.347656 555.507812 190.511719 557.570312 193.738281 C 559.636719 196.960938 561.609375 200.242188 563.492188 203.574219 C 565.375 206.910156 567.164062 210.292969 568.859375 213.726562 C 570.550781 217.160156 572.148438 220.640625 573.652344 224.164062 C 575.152344 227.6875 576.554688 231.246094 577.855469 234.847656 C 579.160156 238.449219 580.363281 242.082031 581.460938 245.75 C 582.5625 249.417969 583.5625 253.113281 584.457031 256.839844 C 585.351562 260.5625 586.144531 264.308594 586.832031 268.074219 C 587.519531 271.839844 588.101562 275.625 588.578125 279.425781 C 589.054688 283.222656 589.425781 287.035156 589.691406 290.855469 C 589.957031 294.675781 590.117188 298.5 590.167969 302.328125 C 590.222656 306.160156 590.167969 309.988281 590.007812 313.8125 C 589.847656 317.640625 589.582031 321.457031 589.207031 325.269531 C 588.835938 329.082031 588.359375 332.878906 587.773438 336.664062 C 587.191406 340.449219 586.503906 344.214844 585.710938 347.960938 C 584.917969 351.707031 584.019531 355.429688 583.019531 359.125 C 582.019531 362.824219 580.917969 366.488281 579.714844 370.125 C 578.511719 373.757812 577.207031 377.359375 575.804688 380.921875 C 574.402344 384.484375 572.898438 388.003906 571.300781 391.484375 C 569.703125 394.960938 568.007812 398.394531 566.214844 401.78125 C 564.425781 405.164062 562.542969 408.496094 560.570312 411.777344 C 558.59375 415.058594 556.527344 418.28125 554.375 421.445312 C 552.21875 424.609375 549.980469 427.714844 547.652344 430.753906 C 545.324219 433.792969 542.914062 436.765625 540.421875 439.671875 C 537.929688 442.578125 535.359375 445.414062 532.710938 448.179688 C 530.058594 450.941406 527.335938 453.628906 524.535156 456.238281 C 521.738281 458.851562 518.867188 461.382812 515.925781 463.835938 C 512.988281 466.289062 509.980469 468.65625 506.910156 470.941406 C 503.839844 473.222656 500.707031 475.421875 497.511719 477.53125 C 494.320312 479.640625 491.070312 481.664062 487.761719 483.589844 C 484.457031 485.519531 481.101562 487.355469 477.691406 489.097656 C 470.46875 492.84375 463.042969 496.140625 455.421875 498.988281 C 447.800781 501.839844 440.035156 504.222656 432.128906 506.136719 C 424.222656 508.050781 416.226562 509.480469 408.148438 510.433594 C 400.066406 511.382812 391.957031 511.847656 383.820312 511.820312 Z M 383.820312 118.394531 C 381.226562 118.394531 378.632812 118.453125 376.039062 118.5625 C 373.449219 118.671875 370.859375 118.835938 368.273438 119.054688 C 365.6875 119.273438 363.105469 119.542969 360.53125 119.871094 C 357.957031 120.195312 355.390625 120.574219 352.832031 121.007812 C 350.273438 121.4375 347.726562 121.925781 345.1875 122.464844 C 342.648438 123.003906 340.121094 123.59375 337.609375 124.238281 C 335.09375 124.882812 332.59375 125.578125 330.109375 126.328125 C 327.625 127.078125 325.15625 127.878906 322.707031 128.730469 C 320.253906 129.582031 317.820312 130.484375 315.410156 131.4375 C 312.996094 132.390625 310.601562 133.390625 308.230469 134.445312 C 305.855469 135.496094 303.507812 136.597656 301.183594 137.75 C 298.855469 138.902344 296.554688 140.101562 294.277344 141.347656 C 292.003906 142.59375 289.753906 143.886719 287.53125 145.226562 C 285.308594 146.570312 283.113281 147.953125 280.949219 149.386719 C 278.785156 150.820312 276.652344 152.296875 274.546875 153.816406 C 272.445312 155.339844 270.375 156.902344 268.335938 158.511719 C 266.300781 160.117188 264.296875 161.765625 262.324219 163.457031 C 260.355469 165.148438 258.421875 166.878906 256.527344 168.652344 C 254.628906 170.421875 252.769531 172.234375 250.949219 174.082031 C 249.125 175.933594 247.34375 177.820312 245.601562 179.742188 C 243.859375 181.667969 242.15625 183.625 240.496094 185.621094 C 238.832031 187.613281 237.214844 189.644531 235.636719 191.707031 C 234.058594 193.765625 232.527344 195.863281 231.035156 197.988281 C 229.546875 200.113281 228.101562 202.269531 226.703125 204.457031 C 225.300781 206.644531 223.949219 208.859375 222.640625 211.101562 C 221.332031 213.34375 220.074219 215.613281 218.859375 217.90625 C 217.648438 220.203125 216.480469 222.523438 215.367188 224.867188 C 214.25 227.210938 213.179688 229.578125 212.164062 231.964844 C 211.144531 234.355469 210.179688 236.761719 209.261719 239.191406 C 208.34375 241.621094 207.476562 244.066406 206.660156 246.53125 C 205.84375 248.996094 205.082031 251.480469 204.367188 253.976562 C 203.65625 256.472656 202.996094 258.984375 202.390625 261.507812 C 201.78125 264.03125 201.226562 266.566406 200.722656 269.117188 C 200.222656 271.664062 199.773438 274.21875 199.378906 276.785156 C 198.980469 279.351562 198.640625 281.925781 198.351562 284.507812 C 198.0625 287.085938 197.828125 289.671875 197.648438 292.261719 C 197.46875 294.855469 197.339844 297.445312 197.269531 300.042969 C 197.195312 302.636719 197.175781 305.234375 197.214844 307.832031 C 197.25 310.425781 197.339844 313.019531 197.480469 315.613281 C 197.625 318.207031 197.824219 320.796875 198.074219 323.378906 C 198.324219 325.964844 198.632812 328.542969 198.988281 331.113281 C 199.347656 333.6875 199.761719 336.25 200.226562 338.804688 C 200.691406 341.359375 201.210938 343.902344 201.78125 346.433594 C 202.355469 348.96875 202.976562 351.488281 203.65625 353.992188 C 204.332031 356.5 205.058594 358.992188 205.839844 361.46875 C 206.621094 363.945312 207.453125 366.40625 208.335938 368.847656 C 209.21875 371.289062 210.152344 373.710938 211.132812 376.113281 C 212.117188 378.515625 213.152344 380.898438 214.234375 383.257812 C 215.316406 385.617188 216.449219 387.953125 217.628906 390.265625 C 218.808594 392.578125 220.039062 394.863281 221.3125 397.125 C 222.589844 399.386719 223.910156 401.621094 225.277344 403.828125 C 226.648438 406.035156 228.0625 408.210938 229.519531 410.359375 C 230.980469 412.503906 232.484375 414.621094 234.03125 416.703125 C 235.578125 418.789062 237.167969 420.839844 238.800781 422.859375 C 240.433594 424.878906 242.109375 426.859375 243.824219 428.808594 C 245.539062 430.757812 247.292969 432.667969 249.089844 434.542969 C 250.882812 436.417969 252.71875 438.257812 254.589844 440.054688 C 256.460938 441.851562 258.367188 443.613281 260.3125 445.332031 C 262.257812 447.050781 264.238281 448.726562 266.253906 450.363281 C 268.269531 452 270.316406 453.59375 272.398438 455.144531 C 274.476562 456.695312 276.589844 458.203125 278.734375 459.667969 C 280.878906 461.128906 283.050781 462.546875 285.253906 463.917969 C 287.457031 465.292969 289.6875 466.617188 291.945312 467.898438 C 294.207031 469.175781 296.488281 470.40625 298.796875 471.589844 C 302.070312 473.273438 305.390625 474.855469 308.753906 476.339844 C 312.121094 477.824219 315.527344 479.210938 318.972656 480.492188 C 322.421875 481.773438 325.90625 482.953125 329.421875 484.027344 C 332.941406 485.105469 336.484375 486.074219 340.0625 486.941406 C 343.636719 487.804688 347.234375 488.5625 350.855469 489.214844 C 354.472656 489.867188 358.109375 490.410156 361.761719 490.84375 C 365.414062 491.28125 369.078125 491.609375 372.75 491.828125 C 376.417969 492.042969 380.09375 492.152344 383.773438 492.152344 C 387.449219 492.152344 391.125 492.042969 394.796875 491.828125 C 398.46875 491.609375 402.132812 491.28125 405.785156 490.84375 C 409.4375 490.410156 413.070312 489.867188 416.691406 489.214844 C 420.3125 488.5625 423.910156 487.804688 427.484375 486.941406 C 431.058594 486.074219 434.605469 485.105469 438.125 484.027344 C 441.640625 482.953125 445.125 481.773438 448.570312 480.492188 C 452.019531 479.210938 455.425781 477.824219 458.792969 476.339844 C 462.15625 474.855469 465.476562 473.273438 468.746094 471.589844 C 471.054688 470.40625 473.339844 469.175781 475.597656 467.898438 C 477.855469 466.617188 480.085938 465.292969 482.289062 463.921875 C 484.492188 462.550781 486.664062 461.132812 488.808594 459.667969 C 490.949219 458.207031 493.0625 456.699219 495.144531 455.148438 C 497.222656 453.597656 499.273438 452.003906 501.285156 450.371094 C 503.300781 448.734375 505.28125 447.054688 507.226562 445.335938 C 509.167969 443.617188 511.078125 441.859375 512.949219 440.0625 C 514.820312 438.265625 516.652344 436.425781 518.449219 434.554688 C 520.242188 432.679688 522 430.765625 523.714844 428.820312 C 525.429688 426.871094 527.101562 424.890625 528.734375 422.871094 C 530.367188 420.851562 531.957031 418.800781 533.503906 416.71875 C 535.050781 414.632812 536.554688 412.519531 538.015625 410.371094 C 539.472656 408.226562 540.886719 406.050781 542.257812 403.84375 C 543.625 401.640625 544.945312 399.40625 546.222656 397.144531 C 547.496094 394.882812 548.726562 392.597656 549.90625 390.285156 C 551.085938 387.972656 552.21875 385.636719 553.300781 383.28125 C 554.382812 380.921875 555.417969 378.539062 556.402344 376.136719 C 557.386719 373.734375 558.320312 371.3125 559.203125 368.871094 C 560.085938 366.429688 560.917969 363.972656 561.695312 361.496094 C 562.476562 359.019531 563.207031 356.53125 563.882812 354.023438 C 564.558594 351.515625 565.183594 349 565.757812 346.464844 C 566.328125 343.933594 566.847656 341.390625 567.3125 338.835938 C 567.78125 336.28125 568.191406 333.71875 568.550781 331.148438 C 568.910156 328.578125 569.214844 326 569.46875 323.417969 C 569.71875 320.832031 569.917969 318.246094 570.0625 315.652344 C 570.207031 313.058594 570.296875 310.464844 570.332031 307.871094 C 570.367188 305.273438 570.351562 302.679688 570.277344 300.082031 C 570.207031 297.488281 570.082031 294.894531 569.902344 292.304688 C 569.71875 289.714844 569.488281 287.132812 569.199219 284.550781 C 568.910156 281.972656 568.570312 279.398438 568.175781 276.832031 C 567.78125 274.265625 567.332031 271.710938 566.832031 269.164062 C 566.328125 266.617188 565.777344 264.078125 565.167969 261.554688 C 564.5625 259.03125 563.902344 256.519531 563.191406 254.023438 C 562.480469 251.527344 561.714844 249.046875 560.902344 246.582031 C 560.085938 244.117188 559.222656 241.671875 558.304688 239.242188 C 557.386719 236.8125 556.421875 234.40625 555.402344 232.015625 C 554.386719 229.628906 553.320312 227.261719 552.207031 224.917969 C 551.089844 222.574219 549.925781 220.253906 548.714844 217.960938 C 547.5 215.664062 546.242188 213.394531 544.933594 211.152344 C 543.628906 208.910156 542.277344 206.695312 540.875 204.507812 C 539.476562 202.320312 538.035156 200.164062 536.546875 198.039062 C 535.058594 195.914062 533.523438 193.820312 531.949219 191.757812 C 530.371094 189.695312 528.753906 187.664062 527.09375 185.671875 C 525.433594 183.675781 523.730469 181.714844 521.988281 179.792969 C 520.25 177.867188 518.464844 175.980469 516.644531 174.132812 C 514.824219 172.28125 512.96875 170.472656 511.070312 168.699219 C 509.175781 166.929688 507.242188 165.195312 505.273438 163.503906 C 503.304688 161.8125 501.304688 160.164062 499.265625 158.554688 C 497.230469 156.949219 495.160156 155.382812 493.058594 153.859375 C 490.957031 152.339844 488.824219 150.863281 486.660156 149.429688 C 484.496094 147.996094 482.304688 146.609375 480.082031 145.269531 C 477.859375 143.925781 475.613281 142.632812 473.335938 141.386719 C 471.0625 140.136719 468.761719 138.9375 466.4375 137.785156 C 464.113281 136.632812 461.761719 135.53125 459.390625 134.476562 C 457.019531 133.425781 454.628906 132.421875 452.214844 131.464844 C 449.804688 130.511719 447.371094 129.609375 444.921875 128.757812 C 442.46875 127.90625 440.003906 127.101562 437.519531 126.355469 C 435.035156 125.605469 432.535156 124.90625 430.023438 124.261719 C 427.511719 123.617188 424.984375 123.023438 422.449219 122.484375 C 419.910156 121.941406 417.363281 121.457031 414.804688 121.023438 C 412.246094 120.589844 409.679688 120.207031 407.105469 119.882812 C 404.53125 119.554688 401.953125 119.28125 399.367188 119.0625 C 396.78125 118.84375 394.195312 118.675781 391.601562 118.566406 C 389.011719 118.453125 386.417969 118.398438 383.820312 118.394531 Z M 383.820312 118.394531 "/><path style=" stroke:none;fill-rule:nonzero;fill:#000000;fill-opacity:1;" d="M 482.605469 669.191406 L 285.527344 669.191406 C 284.621094 669.1875 283.714844 669.160156 282.8125 669.109375 C 281.90625 669.058594 281.003906 668.980469 280.101562 668.878906 C 279.203125 668.777344 278.304688 668.652344 277.410156 668.5 C 276.515625 668.347656 275.628906 668.171875 274.742188 667.972656 C 273.859375 667.769531 272.980469 667.546875 272.109375 667.296875 C 271.238281 667.046875 270.375 666.773438 269.519531 666.476562 C 268.660156 666.179688 267.8125 665.859375 266.976562 665.515625 C 266.136719 665.171875 265.308594 664.804688 264.488281 664.414062 C 263.671875 664.023438 262.863281 663.609375 262.066406 663.175781 C 261.273438 662.742188 260.488281 662.285156 259.71875 661.808594 C 258.949219 661.328125 258.191406 660.832031 257.449219 660.308594 C 256.707031 659.789062 255.976562 659.25 255.265625 658.691406 C 254.550781 658.128906 253.855469 657.550781 253.175781 656.953125 C 252.492188 656.351562 251.828125 655.734375 251.183594 655.101562 C 250.535156 654.464844 249.90625 653.8125 249.296875 653.140625 C 248.683594 652.46875 248.09375 651.785156 247.519531 651.082031 C 246.949219 650.378906 246.394531 649.660156 245.863281 648.925781 C 245.328125 648.191406 244.816406 647.441406 244.324219 646.679688 C 243.832031 645.917969 243.363281 645.144531 242.914062 644.355469 C 242.464844 643.566406 242.039062 642.765625 241.636719 641.957031 C 241.230469 641.144531 240.847656 640.320312 240.488281 639.488281 C 240.128906 638.65625 239.792969 637.8125 239.480469 636.960938 C 239.167969 636.109375 238.882812 635.25 238.617188 634.382812 C 238.351562 633.515625 238.109375 632.640625 237.894531 631.761719 C 237.675781 630.878906 237.484375 629.992188 237.316406 629.101562 C 237.148438 628.210938 237.007812 627.316406 236.890625 626.414062 C 236.769531 625.515625 236.679688 624.613281 236.609375 623.710938 C 236.542969 622.804688 236.5 621.898438 236.480469 620.992188 C 236.460938 620.085938 236.46875 619.179688 236.5 618.273438 C 236.535156 617.363281 236.589844 616.460938 236.671875 615.558594 C 236.753906 614.652344 236.863281 613.753906 236.992188 612.855469 C 237.125 611.957031 237.28125 611.066406 237.464844 610.175781 C 237.421875 609.75 237.421875 609.324219 237.464844 608.898438 L 285.527344 477 C 286.015625 475.667969 286.757812 474.496094 287.75 473.480469 C 288.746094 472.46875 289.90625 471.707031 291.230469 471.199219 C 292.511719 470.621094 293.855469 470.332031 295.261719 470.332031 C 296.664062 470.332031 298.007812 470.621094 299.289062 471.199219 C 302.558594 472.878906 305.875 474.464844 309.238281 475.949219 C 312.601562 477.433594 316.007812 478.816406 319.453125 480.097656 C 322.898438 481.378906 326.378906 482.558594 329.894531 483.636719 C 333.410156 484.710938 336.953125 485.679688 340.527344 486.546875 C 344.101562 487.410156 347.695312 488.167969 351.3125 488.820312 C 354.933594 489.472656 358.566406 490.015625 362.214844 490.453125 C 365.867188 490.886719 369.527344 491.214844 373.195312 491.433594 C 376.867188 491.648438 380.539062 491.757812 384.214844 491.757812 C 387.890625 491.757812 391.5625 491.648438 395.234375 491.433594 C 398.902344 491.214844 402.5625 490.886719 406.214844 490.453125 C 409.863281 490.015625 413.5 489.472656 417.117188 488.820312 C 420.734375 488.167969 424.328125 487.410156 427.902344 486.546875 C 431.476562 485.679688 435.019531 484.710938 438.535156 483.636719 C 442.050781 482.558594 445.53125 481.378906 448.976562 480.097656 C 452.421875 478.816406 455.828125 477.433594 459.191406 475.949219 C 462.554688 474.464844 465.871094 472.878906 469.140625 471.199219 C 470.421875 470.621094 471.765625 470.332031 473.171875 470.332031 C 474.574219 470.332031 475.917969 470.621094 477.199219 471.199219 C 478.523438 471.707031 479.683594 472.46875 480.679688 473.480469 C 481.671875 474.496094 482.414062 475.667969 482.902344 477 L 530.277344 608.40625 C 530.320312 608.832031 530.320312 609.257812 530.277344 609.683594 C 530.460938 610.574219 530.617188 611.464844 530.75 612.363281 C 530.878906 613.261719 530.988281 614.160156 531.070312 615.066406 C 531.152344 615.96875 531.207031 616.875 531.242188 617.78125 C 531.273438 618.6875 531.28125 619.59375 531.261719 620.5 C 531.242188 621.40625 531.199219 622.3125 531.132812 623.21875 C 531.0625 624.121094 530.972656 625.023438 530.851562 625.921875 C 530.734375 626.824219 530.59375 627.71875 530.425781 628.609375 C 530.257812 629.5 530.066406 630.386719 529.847656 631.269531 C 529.632812 632.148438 529.390625 633.023438 529.125 633.890625 C 528.863281 634.757812 528.574219 635.617188 528.261719 636.46875 C 527.949219 637.320312 527.613281 638.164062 527.253906 638.996094 C 526.894531 639.828125 526.511719 640.652344 526.109375 641.464844 C 525.703125 642.277344 525.277344 643.074219 524.828125 643.863281 C 524.378906 644.652344 523.910156 645.425781 523.417969 646.1875 C 522.925781 646.953125 522.414062 647.699219 521.878906 648.433594 C 521.347656 649.167969 520.792969 649.886719 520.222656 650.589844 C 519.648438 651.292969 519.058594 651.980469 518.445312 652.648438 C 517.835938 653.320312 517.207031 653.972656 516.558594 654.609375 C 515.914062 655.242188 515.25 655.859375 514.570312 656.460938 C 513.886719 657.058594 513.191406 657.636719 512.476562 658.199219 C 511.765625 658.757812 511.035156 659.296875 510.292969 659.820312 C 509.550781 660.339844 508.792969 660.835938 508.023438 661.316406 C 507.253906 661.792969 506.46875 662.25 505.675781 662.683594 C 504.878906 663.121094 504.070312 663.53125 503.253906 663.921875 C 502.433594 664.3125 501.605469 664.679688 500.765625 665.023438 C 499.929688 665.367188 499.082031 665.6875 498.222656 665.984375 C 497.367188 666.28125 496.503906 666.554688 495.632812 666.804688 C 494.761719 667.054688 493.882812 667.277344 493 667.480469 C 492.113281 667.679688 491.226562 667.855469 490.332031 668.007812 C 489.4375 668.160156 488.539062 668.285156 487.640625 668.386719 C 486.738281 668.488281 485.835938 668.566406 484.929688 668.617188 C 484.027344 668.667969 483.121094 668.695312 482.214844 668.699219 Z M 256.042969 614.40625 C 255.832031 615.480469 255.683594 616.566406 255.597656 617.65625 C 255.511719 618.75 255.484375 619.84375 255.515625 620.9375 C 255.550781 622.03125 255.648438 623.121094 255.800781 624.207031 C 255.957031 625.292969 256.171875 626.363281 256.449219 627.425781 C 256.722656 628.484375 257.054688 629.527344 257.445312 630.550781 C 257.835938 631.574219 258.285156 632.570312 258.785156 633.546875 C 259.289062 634.519531 259.84375 635.460938 260.449219 636.375 C 261.054688 637.285156 261.710938 638.160156 262.414062 639 C 263.121094 639.839844 263.867188 640.636719 264.660156 641.390625 C 265.453125 642.144531 266.289062 642.855469 267.160156 643.515625 C 268.03125 644.179688 268.9375 644.792969 269.878906 645.351562 C 270.816406 645.914062 271.785156 646.421875 272.78125 646.875 C 273.78125 647.328125 274.796875 647.726562 275.839844 648.066406 C 276.878906 648.40625 277.9375 648.6875 279.007812 648.910156 C 280.082031 649.132812 281.160156 649.292969 282.25 649.394531 C 283.34375 649.496094 284.433594 649.539062 285.527344 649.519531 L 483.097656 649.519531 C 484.191406 649.539062 485.285156 649.496094 486.375 649.394531 C 487.464844 649.292969 488.546875 649.132812 489.617188 648.910156 C 490.691406 648.6875 491.746094 648.40625 492.789062 648.066406 C 493.828125 647.726562 494.847656 647.328125 495.84375 646.875 C 496.839844 646.421875 497.808594 645.914062 498.75 645.351562 C 499.6875 644.792969 500.59375 644.179688 501.46875 643.515625 C 502.339844 642.855469 503.171875 642.144531 503.964844 641.390625 C 504.757812 640.636719 505.507812 639.839844 506.210938 639 C 506.914062 638.160156 507.570312 637.285156 508.179688 636.375 C 508.785156 635.460938 509.339844 634.519531 509.839844 633.546875 C 510.34375 632.570312 510.789062 631.574219 511.179688 630.550781 C 511.570312 629.527344 511.90625 628.484375 512.179688 627.425781 C 512.453125 626.363281 512.667969 625.292969 512.824219 624.207031 C 512.980469 623.121094 513.074219 622.03125 513.109375 620.9375 C 513.144531 619.84375 513.117188 618.75 513.03125 617.65625 C 512.941406 616.566406 512.792969 615.480469 512.585938 614.40625 L 467.765625 493.917969 C 461.179688 496.859375 454.457031 499.449219 447.601562 501.683594 C 440.742188 503.917969 433.789062 505.789062 426.734375 507.292969 C 419.683594 508.796875 412.570312 509.925781 405.398438 510.683594 C 398.226562 511.4375 391.035156 511.816406 383.820312 511.816406 C 376.609375 511.816406 369.417969 511.4375 362.246094 510.683594 C 355.074219 509.925781 347.960938 508.796875 340.910156 507.292969 C 333.855469 505.789062 326.898438 503.917969 320.042969 501.683594 C 313.1875 499.449219 306.464844 496.859375 299.878906 493.917969 Z M 256.042969 614.40625 "/><path style=" stroke:none;fill-rule:nonzero;fill:#000000;fill-opacity:1;" d="M 383.820312 413.464844 C 382.050781 413.464844 380.285156 413.417969 378.515625 413.332031 C 376.75 413.246094 374.984375 413.117188 373.222656 412.941406 C 371.464844 412.769531 369.707031 412.550781 367.957031 412.292969 C 366.207031 412.03125 364.464844 411.730469 362.726562 411.382812 C 360.992188 411.039062 359.265625 410.652344 357.550781 410.21875 C 355.835938 409.789062 354.128906 409.320312 352.4375 408.804688 C 350.742188 408.289062 349.0625 407.734375 347.398438 407.136719 C 345.730469 406.542969 344.082031 405.90625 342.445312 405.226562 C 340.8125 404.550781 339.195312 403.832031 337.59375 403.074219 C 335.996094 402.320312 334.414062 401.523438 332.855469 400.6875 C 331.292969 399.851562 329.753906 398.980469 328.234375 398.070312 C 326.71875 397.160156 325.222656 396.214844 323.753906 395.230469 C 322.28125 394.246094 320.835938 393.226562 319.414062 392.171875 C 317.992188 391.117188 316.597656 390.027344 315.230469 388.90625 C 313.863281 387.78125 312.523438 386.625 311.210938 385.4375 C 309.902344 384.246094 308.621094 383.027344 307.367188 381.773438 C 306.117188 380.523438 304.898438 379.242188 303.707031 377.929688 C 302.519531 376.617188 301.363281 375.277344 300.242188 373.90625 C 299.121094 372.539062 298.03125 371.144531 296.976562 369.722656 C 295.921875 368.296875 294.90625 366.851562 293.921875 365.378906 C 292.9375 363.90625 291.992188 362.410156 291.082031 360.894531 C 290.171875 359.375 289.300781 357.835938 288.464844 356.273438 C 287.632812 354.710938 286.835938 353.128906 286.082031 351.527344 C 285.324219 349.929688 284.605469 348.308594 283.929688 346.675781 C 283.253906 345.039062 282.617188 343.386719 282.019531 341.71875 C 281.425781 340.054688 280.871094 338.371094 280.355469 336.675781 C 279.84375 334.984375 279.371094 333.277344 278.941406 331.558594 C 278.511719 329.84375 278.121094 328.113281 277.777344 326.378906 C 277.433594 324.640625 277.128906 322.898438 276.871094 321.144531 C 276.609375 319.394531 276.394531 317.636719 276.21875 315.875 C 276.046875 314.113281 275.917969 312.347656 275.828125 310.578125 C 275.742188 308.8125 275.699219 307.042969 275.699219 305.269531 C 275.699219 303.5 275.742188 301.730469 275.828125 299.960938 C 275.917969 298.195312 276.046875 296.429688 276.21875 294.667969 C 276.394531 292.90625 276.609375 291.148438 276.871094 289.394531 C 277.128906 287.644531 277.433594 285.902344 277.777344 284.164062 C 278.121094 282.425781 278.511719 280.699219 278.941406 278.984375 C 279.371094 277.265625 279.84375 275.558594 280.355469 273.863281 C 280.871094 272.171875 281.425781 270.488281 282.019531 268.824219 C 282.617188 267.15625 283.253906 265.503906 283.929688 263.867188 C 284.605469 262.230469 285.324219 260.613281 286.082031 259.011719 C 286.835938 257.414062 287.632812 255.832031 288.464844 254.269531 C 289.300781 252.707031 290.171875 251.167969 291.082031 249.648438 C 291.992188 248.128906 292.9375 246.636719 293.921875 245.164062 C 294.90625 243.691406 295.921875 242.242188 296.976562 240.820312 C 298.03125 239.398438 299.121094 238.003906 300.242188 236.636719 C 301.363281 235.265625 302.519531 233.925781 303.707031 232.613281 C 304.898438 231.300781 306.117188 230.019531 307.367188 228.769531 C 308.621094 227.515625 309.902344 226.296875 311.210938 225.105469 C 312.523438 223.917969 313.863281 222.761719 315.230469 221.636719 C 316.597656 220.515625 317.992188 219.425781 319.414062 218.371094 C 320.835938 217.316406 322.28125 216.296875 323.753906 215.3125 C 325.222656 214.328125 326.71875 213.382812 328.234375 212.472656 C 329.753906 211.5625 331.292969 210.6875 332.855469 209.855469 C 334.414062 209.019531 335.996094 208.222656 337.59375 207.464844 C 339.195312 206.710938 340.8125 205.992188 342.445312 205.316406 C 344.082031 204.636719 345.730469 204 347.398438 203.402344 C 349.0625 202.808594 350.742188 202.25 352.4375 201.738281 C 354.128906 201.222656 355.835938 200.75 357.550781 200.320312 C 359.265625 199.890625 360.992188 199.503906 362.726562 199.15625 C 364.464844 198.8125 366.207031 198.511719 367.957031 198.25 C 369.707031 197.992188 371.464844 197.773438 373.222656 197.601562 C 374.984375 197.425781 376.75 197.296875 378.515625 197.210938 C 380.285156 197.121094 382.050781 197.078125 383.820312 197.078125 C 385.589844 197.078125 387.359375 197.121094 389.128906 197.210938 C 390.894531 197.296875 392.660156 197.425781 394.417969 197.601562 C 396.179688 197.773438 397.9375 197.992188 399.6875 198.25 C 401.4375 198.511719 403.179688 198.8125 404.914062 199.15625 C 406.652344 199.503906 408.378906 199.890625 410.09375 200.320312 C 411.808594 200.75 413.515625 201.222656 415.207031 201.738281 C 416.902344 202.25 418.582031 202.808594 420.246094 203.402344 C 421.914062 204 423.5625 204.636719 425.199219 205.316406 C 426.832031 205.992188 428.449219 206.710938 430.050781 207.464844 C 431.648438 208.222656 433.230469 209.019531 434.789062 209.855469 C 436.351562 210.6875 437.890625 211.5625 439.40625 212.472656 C 440.925781 213.382812 442.421875 214.328125 443.890625 215.3125 C 445.363281 216.296875 446.808594 217.316406 448.230469 218.371094 C 449.652344 219.425781 451.046875 220.515625 452.414062 221.636719 C 453.78125 222.761719 455.121094 223.917969 456.433594 225.105469 C 457.742188 226.296875 459.023438 227.515625 460.277344 228.769531 C 461.527344 230.019531 462.746094 231.300781 463.933594 232.613281 C 465.125 233.925781 466.277344 235.265625 467.402344 236.636719 C 468.523438 238.003906 469.613281 239.398438 470.667969 240.820312 C 471.722656 242.242188 472.738281 243.691406 473.722656 245.164062 C 474.707031 246.636719 475.652344 248.128906 476.5625 249.648438 C 477.472656 251.167969 478.34375 252.707031 479.175781 254.269531 C 480.011719 255.832031 480.808594 257.414062 481.5625 259.011719 C 482.320312 260.613281 483.035156 262.230469 483.714844 263.867188 C 484.390625 265.503906 485.027344 267.15625 485.625 268.824219 C 486.21875 270.488281 486.773438 272.171875 487.289062 273.863281 C 487.800781 275.558594 488.273438 277.265625 488.703125 278.984375 C 489.132812 280.699219 489.523438 282.425781 489.867188 284.164062 C 490.210938 285.902344 490.515625 287.644531 490.773438 289.394531 C 491.035156 291.148438 491.25 292.90625 491.421875 294.667969 C 491.597656 296.429688 491.726562 298.195312 491.8125 299.960938 C 491.902344 301.730469 491.945312 303.5 491.945312 305.269531 C 491.945312 307.042969 491.902344 308.8125 491.8125 310.578125 C 491.726562 312.347656 491.597656 314.113281 491.421875 315.875 C 491.25 317.636719 491.035156 319.394531 490.773438 321.144531 C 490.515625 322.898438 490.210938 324.640625 489.867188 326.378906 C 489.523438 328.113281 489.132812 329.84375 488.703125 331.558594 C 488.273438 333.277344 487.800781 334.984375 487.289062 336.675781 C 486.773438 338.371094 486.21875 340.054688 485.625 341.71875 C 485.027344 343.386719 484.390625 345.039062 483.714844 346.675781 C 483.035156 348.308594 482.320312 349.929688 481.5625 351.527344 C 480.808594 353.128906 480.011719 354.710938 479.175781 356.273438 C 478.34375 357.835938 477.472656 359.375 476.5625 360.894531 C 475.652344 362.410156 474.707031 363.90625 473.722656 365.378906 C 472.738281 366.851562 471.722656 368.296875 470.667969 369.722656 C 469.613281 371.144531 468.523438 372.539062 467.402344 373.90625 C 466.277344 375.277344 465.125 376.617188 463.933594 377.929688 C 462.746094 379.242188 461.527344 380.523438 460.277344 381.773438 C 459.023438 383.027344 457.742188 384.246094 456.433594 385.4375 C 455.121094 386.625 453.78125 387.78125 452.414062 388.90625 C 451.046875 390.027344 449.652344 391.117188 448.230469 392.171875 C 446.808594 393.226562 445.363281 394.246094 443.890625 395.230469 C 442.421875 396.214844 440.925781 397.160156 439.40625 398.070312 C 437.890625 398.980469 436.351562 399.851562 434.789062 400.6875 C 433.230469 401.523438 431.648438 402.320312 430.050781 403.074219 C 428.449219 403.832031 426.832031 404.550781 425.199219 405.226562 C 423.5625 405.90625 421.914062 406.542969 420.246094 407.136719 C 418.582031 407.734375 416.902344 408.289062 415.207031 408.804688 C 413.515625 409.320312 411.808594 409.789062 410.09375 410.222656 C 408.378906 410.652344 406.652344 411.039062 404.914062 411.382812 C 403.179688 411.730469 401.4375 412.03125 399.6875 412.292969 C 397.9375 412.550781 396.179688 412.769531 394.417969 412.941406 C 392.660156 413.117188 390.894531 413.246094 389.128906 413.332031 C 387.359375 413.417969 385.589844 413.464844 383.820312 413.464844 Z M 383.820312 216.75 C 382.375 216.75 380.925781 216.785156 379.480469 216.855469 C 378.035156 216.929688 376.59375 217.035156 375.152344 217.175781 C 373.710938 217.320312 372.273438 217.496094 370.839844 217.707031 C 369.410156 217.921875 367.984375 218.167969 366.5625 218.453125 C 365.144531 218.734375 363.730469 219.050781 362.328125 219.402344 C 360.921875 219.753906 359.527344 220.140625 358.140625 220.5625 C 356.757812 220.984375 355.382812 221.4375 354.019531 221.925781 C 352.65625 222.414062 351.304688 222.933594 349.96875 223.488281 C 348.632812 224.042969 347.308594 224.628906 346 225.25 C 344.691406 225.867188 343.398438 226.519531 342.121094 227.203125 C 340.84375 227.886719 339.585938 228.597656 338.34375 229.34375 C 337.101562 230.089844 335.878906 230.863281 334.675781 231.667969 C 333.46875 232.472656 332.289062 233.308594 331.125 234.171875 C 329.960938 235.035156 328.820312 235.925781 327.703125 236.84375 C 326.582031 237.761719 325.484375 238.707031 324.414062 239.679688 C 323.339844 240.65625 322.292969 241.652344 321.269531 242.675781 C 320.246094 243.703125 319.246094 244.75 318.273438 245.824219 C 317.300781 246.898438 316.355469 247.996094 315.4375 249.113281 C 314.519531 250.234375 313.628906 251.375 312.765625 252.539062 C 311.90625 253.703125 311.070312 254.886719 310.265625 256.089844 C 309.460938 257.296875 308.6875 258.519531 307.945312 259.761719 C 307.199219 261.003906 306.488281 262.265625 305.804688 263.542969 C 305.121094 264.820312 304.472656 266.113281 303.851562 267.421875 C 303.234375 268.734375 302.644531 270.058594 302.09375 271.394531 C 301.539062 272.734375 301.015625 274.085938 300.53125 275.449219 C 300.042969 276.8125 299.589844 278.1875 299.167969 279.574219 C 298.746094 280.960938 298.359375 282.355469 298.007812 283.761719 C 297.65625 285.167969 297.339844 286.582031 297.058594 288 C 296.777344 289.421875 296.527344 290.847656 296.316406 292.28125 C 296.101562 293.714844 295.925781 295.152344 295.785156 296.59375 C 295.640625 298.035156 295.535156 299.480469 295.464844 300.925781 C 295.394531 302.375 295.359375 303.824219 295.359375 305.269531 C 295.359375 306.71875 295.394531 308.167969 295.464844 309.613281 C 295.535156 311.0625 295.640625 312.507812 295.785156 313.949219 C 295.925781 315.390625 296.101562 316.828125 296.316406 318.261719 C 296.527344 319.691406 296.777344 321.121094 297.058594 322.539062 C 297.339844 323.960938 297.65625 325.375 298.007812 326.78125 C 298.359375 328.183594 298.746094 329.582031 299.167969 330.96875 C 299.589844 332.355469 300.042969 333.730469 300.53125 335.09375 C 301.015625 336.457031 301.539062 337.808594 302.09375 339.148438 C 302.644531 340.484375 303.234375 341.808594 303.851562 343.117188 C 304.472656 344.429688 305.121094 345.722656 305.804688 347 C 306.488281 348.277344 307.199219 349.539062 307.945312 350.78125 C 308.6875 352.023438 309.460938 353.246094 310.265625 354.449219 C 311.070312 355.65625 311.90625 356.839844 312.765625 358.003906 C 313.628906 359.167969 314.519531 360.308594 315.4375 361.429688 C 316.355469 362.546875 317.300781 363.644531 318.273438 364.71875 C 319.246094 365.792969 320.246094 366.839844 321.269531 367.863281 C 322.292969 368.890625 323.339844 369.886719 324.414062 370.859375 C 325.484375 371.832031 326.582031 372.78125 327.703125 373.699219 C 328.820312 374.617188 329.960938 375.507812 331.125 376.371094 C 332.289062 377.234375 333.46875 378.070312 334.675781 378.875 C 335.878906 379.679688 337.101562 380.453125 338.34375 381.199219 C 339.585938 381.941406 340.84375 382.65625 342.121094 383.339844 C 343.398438 384.023438 344.691406 384.671875 346 385.292969 C 347.308594 385.914062 348.632812 386.5 349.96875 387.054688 C 351.304688 387.609375 352.65625 388.128906 354.019531 388.617188 C 355.382812 389.105469 356.757812 389.558594 358.140625 389.980469 C 359.527344 390.402344 360.921875 390.785156 362.328125 391.140625 C 363.730469 391.492188 365.144531 391.808594 366.5625 392.089844 C 367.984375 392.375 369.410156 392.621094 370.839844 392.832031 C 372.273438 393.046875 373.710938 393.222656 375.152344 393.367188 C 376.59375 393.507812 378.035156 393.613281 379.480469 393.683594 C 380.925781 393.757812 382.375 393.792969 383.820312 393.792969 C 385.269531 393.792969 386.714844 393.757812 388.164062 393.683594 C 389.609375 393.613281 391.050781 393.507812 392.492188 393.367188 C 393.933594 393.222656 395.371094 393.046875 396.800781 392.832031 C 398.234375 392.621094 399.660156 392.375 401.082031 392.089844 C 402.5 391.808594 403.914062 391.492188 405.316406 391.140625 C 406.722656 390.785156 408.117188 390.402344 409.5 389.980469 C 410.886719 389.558594 412.261719 389.105469 413.625 388.617188 C 414.988281 388.128906 416.339844 387.609375 417.675781 387.054688 C 419.011719 386.5 420.335938 385.914062 421.644531 385.292969 C 422.953125 384.671875 424.246094 384.023438 425.523438 383.339844 C 426.800781 382.65625 428.058594 381.941406 429.300781 381.199219 C 430.542969 380.453125 431.765625 379.679688 432.96875 378.875 C 434.171875 378.070312 435.355469 377.234375 436.519531 376.371094 C 437.683594 375.507812 438.824219 374.617188 439.941406 373.699219 C 441.0625 372.78125 442.15625 371.832031 443.230469 370.859375 C 444.304688 369.886719 445.351562 368.890625 446.375 367.863281 C 447.398438 366.839844 448.398438 365.792969 449.371094 364.71875 C 450.339844 363.644531 451.285156 362.546875 452.207031 361.429688 C 453.125 360.308594 454.015625 359.167969 454.875 358.003906 C 455.738281 356.839844 456.574219 355.65625 457.375 354.449219 C 458.179688 353.246094 458.957031 352.023438 459.699219 350.78125 C 460.445312 349.539062 461.15625 348.277344 461.839844 347 C 462.523438 345.722656 463.171875 344.429688 463.792969 343.117188 C 464.410156 341.808594 464.996094 340.484375 465.550781 339.148438 C 466.105469 337.808594 466.625 336.457031 467.113281 335.09375 C 467.601562 333.730469 468.054688 332.355469 468.476562 330.96875 C 468.898438 329.582031 469.28125 328.183594 469.632812 326.78125 C 469.984375 325.375 470.304688 323.960938 470.585938 322.539062 C 470.867188 321.121094 471.117188 319.691406 471.328125 318.261719 C 471.539062 316.828125 471.71875 315.390625 471.859375 313.949219 C 472 312.507812 472.109375 311.0625 472.179688 309.613281 C 472.25 308.167969 472.285156 306.71875 472.285156 305.269531 C 472.285156 303.824219 472.25 302.375 472.179688 300.925781 C 472.109375 299.480469 472 298.035156 471.859375 296.59375 C 471.71875 295.152344 471.539062 293.714844 471.328125 292.28125 C 471.117188 290.847656 470.867188 289.421875 470.585938 288 C 470.304688 286.582031 469.988281 285.167969 469.632812 283.761719 C 469.28125 282.355469 468.898438 280.960938 468.476562 279.574219 C 468.054688 278.1875 467.601562 276.8125 467.113281 275.449219 C 466.625 274.085938 466.105469 272.734375 465.550781 271.394531 C 464.996094 270.058594 464.410156 268.734375 463.792969 267.421875 C 463.171875 266.113281 462.523438 264.820312 461.839844 263.542969 C 461.15625 262.265625 460.445312 261.003906 459.699219 259.761719 C 458.957031 258.519531 458.179688 257.296875 457.378906 256.089844 C 456.574219 254.886719 455.738281 253.703125 454.875 252.539062 C 454.015625 251.375 453.125 250.234375 452.207031 249.113281 C 451.285156 247.996094 450.339844 246.898438 449.371094 245.824219 C 448.398438 244.75 447.398438 243.703125 446.375 242.675781 C 445.351562 241.652344 444.304688 240.65625 443.230469 239.679688 C 442.15625 238.707031 441.0625 237.761719 439.941406 236.84375 C 438.824219 235.925781 437.683594 235.035156 436.519531 234.171875 C 435.355469 233.308594 434.171875 232.472656 432.96875 231.667969 C 431.765625 230.863281 430.542969 230.089844 429.300781 229.34375 C 428.058594 228.597656 426.800781 227.886719 425.523438 227.203125 C 424.246094 226.519531 422.953125 225.867188 421.644531 225.25 C 420.335938 224.628906 419.011719 224.042969 417.675781 223.488281 C 416.339844 222.933594 414.988281 222.414062 413.625 221.925781 C 412.261719 221.4375 410.886719 220.984375 409.5 220.5625 C 408.117188 220.140625 406.722656 219.753906 405.316406 219.402344 C 403.914062 219.050781 402.5 218.734375 401.082031 218.453125 C 399.660156 218.167969 398.234375 217.921875 396.800781 217.707031 C 395.371094 217.496094 393.933594 217.320312 392.492188 217.175781 C 391.050781 217.035156 389.609375 216.929688 388.164062 216.855469 C 386.714844 216.785156 385.269531 216.75 383.820312 216.75 Z M 383.820312 216.75 "/><path style=" stroke:none;fill-rule:nonzero;fill:#000000;fill-opacity:1;" d="M 432.96875 305.269531 C 432.96875 306.882812 432.890625 308.488281 432.730469 310.089844 C 432.574219 311.695312 432.339844 313.285156 432.023438 314.867188 C 431.710938 316.445312 431.320312 318.003906 430.851562 319.546875 C 430.386719 321.089844 429.84375 322.601562 429.226562 324.089844 C 428.613281 325.578125 427.925781 327.03125 427.164062 328.453125 C 426.40625 329.875 425.582031 331.253906 424.6875 332.59375 C 423.792969 333.933594 422.832031 335.222656 421.8125 336.46875 C 420.792969 337.714844 419.710938 338.90625 418.574219 340.046875 C 417.4375 341.183594 416.246094 342.265625 415 343.285156 C 413.757812 344.308594 412.464844 345.265625 411.125 346.160156 C 409.789062 347.054688 408.410156 347.882812 406.988281 348.640625 C 405.570312 349.402344 404.117188 350.089844 402.628906 350.707031 C 401.140625 351.320312 399.628906 351.863281 398.089844 352.332031 C 396.546875 352.800781 394.988281 353.191406 393.410156 353.503906 C 391.832031 353.820312 390.242188 354.054688 388.640625 354.210938 C 387.039062 354.371094 385.433594 354.449219 383.820312 354.449219 C 382.210938 354.449219 380.605469 354.371094 379.003906 354.210938 C 377.402344 354.054688 375.8125 353.820312 374.234375 353.503906 C 372.65625 353.191406 371.097656 352.800781 369.554688 352.332031 C 368.015625 351.863281 366.5 351.320312 365.015625 350.707031 C 363.527344 350.089844 362.074219 349.402344 360.65625 348.640625 C 359.234375 347.882812 357.855469 347.054688 356.519531 346.160156 C 355.179688 345.265625 353.886719 344.308594 352.644531 343.285156 C 351.398438 342.265625 350.207031 341.183594 349.070312 340.046875 C 347.933594 338.90625 346.851562 337.714844 345.832031 336.46875 C 344.808594 335.222656 343.851562 333.933594 342.957031 332.59375 C 342.0625 331.253906 341.238281 329.875 340.480469 328.453125 C 339.71875 327.03125 339.03125 325.578125 338.417969 324.089844 C 337.800781 322.601562 337.257812 321.089844 336.792969 319.546875 C 336.324219 318.003906 335.933594 316.445312 335.621094 314.867188 C 335.304688 313.285156 335.070312 311.695312 334.914062 310.089844 C 334.753906 308.488281 334.675781 306.882812 334.675781 305.269531 C 334.675781 303.660156 334.753906 302.054688 334.914062 300.449219 C 335.070312 298.847656 335.304688 297.257812 335.621094 295.675781 C 335.933594 294.097656 336.324219 292.535156 336.792969 290.996094 C 337.257812 289.453125 337.800781 287.941406 338.417969 286.453125 C 339.03125 284.964844 339.71875 283.507812 340.480469 282.089844 C 341.238281 280.667969 342.0625 279.289062 342.957031 277.949219 C 343.851562 276.609375 344.808594 275.316406 345.832031 274.074219 C 346.851562 272.828125 347.933594 271.636719 349.070312 270.496094 C 350.207031 269.359375 351.398438 268.277344 352.644531 267.257812 C 353.886719 266.234375 355.179688 265.277344 356.519531 264.382812 C 357.855469 263.484375 359.234375 262.660156 360.65625 261.898438 C 362.074219 261.140625 363.527344 260.453125 365.015625 259.835938 C 366.5 259.21875 368.015625 258.679688 369.554688 258.210938 C 371.097656 257.742188 372.65625 257.351562 374.234375 257.039062 C 375.8125 256.722656 377.402344 256.488281 379.003906 256.328125 C 380.605469 256.171875 382.210938 256.09375 383.820312 256.09375 C 385.433594 256.09375 387.039062 256.171875 388.640625 256.328125 C 390.242188 256.488281 391.832031 256.722656 393.410156 257.039062 C 394.988281 257.351562 396.546875 257.742188 398.089844 258.210938 C 399.628906 258.679688 401.140625 259.21875 402.628906 259.835938 C 404.117188 260.453125 405.570312 261.140625 406.988281 261.898438 C 408.410156 262.660156 409.789062 263.484375 411.125 264.382812 C 412.464844 265.277344 413.757812 266.234375 415 267.257812 C 416.246094 268.277344 417.4375 269.359375 418.574219 270.496094 C 419.710938 271.636719 420.792969 272.828125 421.8125 274.074219 C 422.832031 275.316406 423.792969 276.609375 424.6875 277.949219 C 425.582031 279.289062 426.40625 280.667969 427.164062 282.089844 C 427.925781 283.507812 428.613281 284.964844 429.226562 286.453125 C 429.84375 287.941406 430.386719 289.453125 430.851562 290.996094 C 431.320312 292.535156 431.710938 294.097656 432.023438 295.675781 C 432.339844 297.257812 432.574219 298.847656 432.730469 300.449219 C 432.890625 302.054688 432.96875 303.660156 432.96875 305.269531 Z M 432.96875 305.269531 "/><path style=" stroke:none;fill-rule:nonzero;fill:#000000;fill-opacity:1;" d="M 413.308594 305.269531 C 413.308594 306.238281 413.261719 307.203125 413.167969 308.164062 C 413.074219 309.125 412.933594 310.078125 412.742188 311.027344 C 412.554688 311.976562 412.320312 312.910156 412.039062 313.835938 C 411.761719 314.761719 411.433594 315.671875 411.066406 316.5625 C 410.695312 317.457031 410.285156 318.328125 409.828125 319.179688 C 409.371094 320.03125 408.875 320.859375 408.339844 321.664062 C 407.804688 322.46875 407.230469 323.242188 406.617188 323.988281 C 406.003906 324.738281 405.355469 325.453125 404.671875 326.136719 C 403.988281 326.820312 403.277344 327.46875 402.527344 328.082031 C 401.78125 328.691406 401.007812 329.269531 400.203125 329.804688 C 399.402344 330.34375 398.574219 330.839844 397.722656 331.292969 C 396.871094 331.75 396 332.160156 395.105469 332.53125 C 394.214844 332.902344 393.304688 333.226562 392.382812 333.507812 C 391.457031 333.789062 390.523438 334.023438 389.574219 334.210938 C 388.628906 334.398438 387.671875 334.542969 386.710938 334.636719 C 385.75 334.730469 384.789062 334.777344 383.820312 334.777344 C 382.855469 334.777344 381.894531 334.730469 380.933594 334.636719 C 379.96875 334.542969 379.015625 334.398438 378.070312 334.210938 C 377.121094 334.023438 376.1875 333.789062 375.261719 333.507812 C 374.339844 333.226562 373.429688 332.902344 372.539062 332.53125 C 371.644531 332.160156 370.773438 331.75 369.921875 331.292969 C 369.070312 330.839844 368.242188 330.34375 367.4375 329.804688 C 366.636719 329.269531 365.863281 328.691406 365.113281 328.082031 C 364.367188 327.46875 363.652344 326.820312 362.972656 326.136719 C 362.289062 325.453125 361.640625 324.738281 361.027344 323.988281 C 360.414062 323.242188 359.839844 322.46875 359.304688 321.664062 C 358.765625 320.859375 358.269531 320.03125 357.816406 319.179688 C 357.359375 318.328125 356.949219 317.457031 356.578125 316.5625 C 356.210938 315.671875 355.882812 314.761719 355.605469 313.835938 C 355.324219 312.910156 355.089844 311.976562 354.902344 311.027344 C 354.710938 310.078125 354.570312 309.125 354.476562 308.164062 C 354.382812 307.203125 354.335938 306.238281 354.335938 305.269531 C 354.335938 304.304688 354.382812 303.339844 354.476562 302.378906 C 354.570312 301.417969 354.710938 300.460938 354.902344 299.515625 C 355.089844 298.566406 355.324219 297.628906 355.605469 296.707031 C 355.882812 295.78125 356.210938 294.871094 356.578125 293.980469 C 356.949219 293.085938 357.359375 292.214844 357.816406 291.363281 C 358.269531 290.507812 358.765625 289.679688 359.304688 288.878906 C 359.839844 288.074219 360.414062 287.300781 361.027344 286.550781 C 361.640625 285.804688 362.289062 285.089844 362.972656 284.40625 C 363.652344 283.722656 364.367188 283.074219 365.113281 282.460938 C 365.863281 281.847656 366.636719 281.273438 367.4375 280.738281 C 368.242188 280.199219 369.070312 279.703125 369.921875 279.25 C 370.773438 278.792969 371.644531 278.378906 372.539062 278.011719 C 373.429688 277.640625 374.339844 277.316406 375.261719 277.035156 C 376.1875 276.753906 377.121094 276.519531 378.070312 276.332031 C 379.015625 276.144531 379.96875 276 380.933594 275.90625 C 381.894531 275.8125 382.855469 275.765625 383.820312 275.765625 C 384.789062 275.765625 385.75 275.8125 386.710938 275.90625 C 387.671875 276 388.628906 276.144531 389.574219 276.332031 C 390.523438 276.519531 391.457031 276.753906 392.382812 277.035156 C 393.304688 277.316406 394.214844 277.640625 395.105469 278.011719 C 396 278.378906 396.871094 278.792969 397.722656 279.25 C 398.574219 279.703125 399.402344 280.199219 400.203125 280.738281 C 401.007812 281.273438 401.78125 281.847656 402.527344 282.460938 C 403.277344 283.074219 403.988281 283.722656 404.671875 284.40625 C 405.355469 285.089844 406.003906 285.804688 406.617188 286.550781 C 407.230469 287.300781 407.804688 288.074219 408.339844 288.878906 C 408.875 289.679688 409.371094 290.507812 409.828125 291.363281 C 410.285156 292.214844 410.695312 293.085938 411.066406 293.980469 C 411.433594 294.871094 411.761719 295.78125 412.039062 296.707031 C 412.320312 297.628906 412.554688 298.566406 412.742188 299.515625 C 412.933594 300.460938 413.074219 301.417969 413.167969 302.378906 C 413.261719 303.339844 413.308594 304.304688 413.308594 305.269531 Z M 413.308594 305.269531 "/></g></svg>