<svg xmlns="http://www.w3.org/2000/svg" xmlns:xlink="http://www.w3.org/1999/xlink" width="1024" zoomAndPan="magnify" viewBox="0 0 768 767.999994" height="1024" preserveAspectRatio="xMidYMid meet" version="1.2"><defs><clipPath id="1c54929cd9"><path d="M 282.960938 567.507812 L 318.492188 567.507812 L 318.492188 603.039062 L 282.960938 603.039062 Z M 282.960938 567.507812 "/></clipPath><clipPath id="f14cc66cc5"><path d="M 300.726562 567.507812 C 290.914062 567.507812 282.960938 575.460938 282.960938 585.273438 C 282.960938 595.085938 290.914062 603.039062 300.726562 603.039062 C 310.539062 603.039062 318.492188 595.085938 318.492188 585.273438 C 318.492188 575.460938 310.539062 567.507812 300.726562 567.507812 Z M 300.726562 567.507812 "/></clipPath><clipPath id="654807784e"><path d="M 366.234375 655.667969 L 401.765625 655.667969 L 401.765625 691.199219 L 366.234375 691.199219 Z M 366.234375 655.667969 "/></clipPath><clipPath id="8b333ee388"><path d="M 384 655.667969 C 374.1875 655.667969 366.234375 663.621094 366.234375 673.433594 C 366.234375 683.246094 374.1875 691.199219 384 691.199219 C 393.8125 691.199219 401.765625 683.246094 401.765625 673.433594 C 401.765625 663.621094 393.8125 655.667969 384 655.667969 Z M 384 655.667969 "/></clipPath><clipPath id="1af5f4eda8"><path d="M 450.042969 603.039062 L 485.578125 603.039062 L 485.578125 638.570312 L 450.042969 638.570312 Z M 450.042969 603.039062 "/></clipPath><clipPath id="8b4cd31eac"><path d="M 467.8125 603.039062 C 458 603.039062 450.042969 610.992188 450.042969 620.804688 C 450.042969 630.617188 458 638.570312 467.8125 638.570312 C 477.621094 638.570312 485.578125 630.617188 485.578125 620.804688 C 485.578125 610.992188 477.621094 603.039062 467.8125 603.039062 Z M 467.8125 603.039062 "/></clipPath><clipPath id="d5576651c4"><path d="M 353 356 L 415 356 L 415 705.863281 L 353 705.863281 Z M 353 356 "/></clipPath></defs><g id="2d3127fbba"><g clip-rule="nonzero" clip-path="url(#1c54929cd9)"><g clip-rule="nonzero" clip-path="url(#f14cc66cc5)"><path style=" stroke:none;fill-rule:nonzero;fill:#ffffff;fill-opacity:1;" d="M 282.960938 567.507812 L 318.492188 567.507812 L 318.492188 603.039062 L 282.960938 603.039062 Z M 282.960938 567.507812 "/></g></g><g clip-rule="nonzero" clip-path="url(#654807784e)"><g clip-rule="nonzero" clip-path="url(#8b333ee388)"><path style=" stroke:none;fill-rule:nonzero;fill:#ffffff;fill-opacity:1;" d="M 366.234375 655.667969 L 401.765625 655.667969 L 401.765625 691.199219 L 366.234375 691.199219 Z M 366.234375 655.667969 "/></g></g><g clip-rule="nonzero" clip-path="url(#1af5f4eda8)"><g clip-rule="nonzero" clip-path="url(#8b4cd31eac)"><path style=" stroke:none;fill-rule:nonzero;fill:#ffffff;fill-opacity:1;" d="M 450.042969 603.039062 L 485.578125 603.039062 L 485.578125 638.570312 L 450.042969 638.570312 Z M 450.042969 603.039062 "/></g></g><path style=" stroke:none;fill-rule:nonzero;fill:#000000;fill-opacity:1;" d="M 652.109375 264.796875 L 389.421875 65.027344 C 385.90625 62.355469 381.035156 62.355469 377.523438 65.039062 L 115.847656 264.808594 C 111.539062 268.097656 110.714844 274.257812 114.003906 278.566406 C 115.933594 281.097656 118.855469 282.425781 121.8125 282.425781 C 123.890625 282.425781 125.984375 281.773438 127.761719 280.414062 L 383.492188 85.179688 L 640.222656 280.425781 C 644.542969 283.707031 650.695312 282.867188 653.980469 278.554688 C 657.261719 274.238281 656.421875 268.082031 652.109375 264.796875 Z M 652.109375 264.796875 "/><path style=" stroke:none;fill-rule:nonzero;fill:#000000;fill-opacity:1;" d="M 571.300781 252.648438 C 565.878906 252.648438 561.484375 257.039062 561.484375 262.460938 L 561.484375 493.128906 L 465.8125 493.128906 L 465.8125 352.722656 C 465.8125 307.601562 429.105469 270.894531 383.984375 270.894531 C 338.867188 270.894531 302.160156 307.601562 302.160156 352.722656 L 302.160156 493.128906 L 206.488281 493.128906 L 206.488281 262.460938 C 206.488281 257.039062 202.09375 252.648438 196.671875 252.648438 C 191.25 252.648438 186.855469 257.039062 186.855469 262.460938 L 186.855469 502.945312 C 186.855469 508.367188 191.25 512.757812 196.671875 512.757812 L 311.976562 512.757812 C 317.394531 512.757812 321.789062 508.367188 321.789062 502.945312 L 321.789062 352.722656 C 321.789062 318.425781 349.691406 290.527344 383.984375 290.527344 C 418.277344 290.527344 446.179688 318.425781 446.179688 352.722656 L 446.179688 502.945312 C 446.179688 508.367188 450.574219 512.757812 455.996094 512.757812 L 571.300781 512.757812 C 576.722656 512.757812 581.113281 508.367188 581.113281 502.945312 L 581.113281 262.460938 C 581.113281 257.039062 576.722656 252.648438 571.300781 252.648438 Z M 571.300781 252.648438 "/><g clip-rule="nonzero" clip-path="url(#d5576651c4)"><path style=" stroke:none;fill-rule:nonzero;fill:#000000;fill-opacity:1;" d="M 394.28125 646.253906 L 394.28125 365.917969 C 394.28125 360.496094 389.886719 356.101562 384.464844 356.101562 C 379.042969 356.101562 374.648438 360.496094 374.648438 365.917969 L 374.648438 646.253906 C 362.636719 650.347656 353.972656 661.734375 353.972656 675.117188 C 353.972656 691.929688 367.652344 705.609375 384.464844 705.609375 C 401.277344 705.609375 414.960938 691.929688 414.960938 675.117188 C 414.960938 661.738281 406.292969 650.351562 394.28125 646.253906 Z M 384.464844 685.980469 C 378.472656 685.980469 373.601562 681.105469 373.601562 675.117188 C 373.601562 669.125 378.476562 664.253906 384.464844 664.253906 C 390.453125 664.253906 395.328125 669.125 395.328125 675.117188 C 395.328125 681.105469 390.453125 685.980469 384.464844 685.980469 Z M 384.464844 685.980469 "/></g><path style=" stroke:none;fill-rule:nonzero;fill:#000000;fill-opacity:1;" d="M 466.890625 588.109375 C 461.714844 588.109375 456.828125 589.367188 452.511719 591.582031 L 424.554688 563.132812 L 424.554688 426.066406 C 424.554688 420.644531 420.160156 416.253906 414.738281 416.253906 C 409.316406 416.253906 404.921875 420.644531 404.921875 426.066406 L 404.921875 567.152344 C 404.921875 569.726562 405.933594 572.195312 407.738281 574.03125 L 438.667969 605.503906 C 436.503906 609.78125 435.277344 614.609375 435.277344 619.71875 C 435.277344 637.148438 449.457031 651.328125 466.886719 651.328125 C 484.316406 651.328125 498.496094 637.148438 498.496094 619.71875 C 498.496094 602.289062 484.320312 588.109375 466.890625 588.109375 Z M 466.890625 631.699219 C 460.285156 631.699219 454.910156 626.324219 454.910156 619.71875 C 454.910156 613.113281 460.285156 607.742188 466.890625 607.742188 C 473.496094 607.742188 478.867188 613.113281 478.867188 619.71875 C 478.867188 626.324219 473.496094 631.699219 466.890625 631.699219 Z M 466.890625 631.699219 "/><path style=" stroke:none;fill-rule:nonzero;fill:#000000;fill-opacity:1;" d="M 360.605469 539.6875 C 362.445312 537.847656 363.480469 535.351562 363.480469 532.746094 L 363.480469 426.066406 C 363.480469 420.644531 359.085938 416.25 353.664062 416.25 C 348.242188 416.25 343.847656 420.644531 343.847656 426.066406 L 343.847656 528.679688 L 315.109375 557.417969 C 311.148438 555.625 306.757812 554.617188 302.128906 554.617188 C 284.699219 554.617188 270.519531 568.796875 270.519531 586.226562 C 270.519531 603.65625 284.699219 617.835938 302.128906 617.835938 C 319.558594 617.835938 333.738281 603.65625 333.738281 586.226562 C 333.738281 580.570312 332.238281 575.261719 329.625 570.664062 Z M 302.128906 598.207031 C 295.523438 598.207031 290.152344 592.835938 290.152344 586.230469 C 290.152344 579.625 295.523438 574.25 302.128906 574.25 C 308.734375 574.25 314.109375 579.625 314.109375 586.230469 C 314.109375 592.835938 308.734375 598.207031 302.128906 598.207031 Z M 302.128906 598.207031 "/></g></svg>