<svg xmlns="http://www.w3.org/2000/svg" xmlns:xlink="http://www.w3.org/1999/xlink" width="1024" zoomAndPan="magnify" viewBox="0 0 768 767.999994" height="1024" preserveAspectRatio="xMidYMid meet" version="1.2"><defs><clipPath id="d5351a0967"><path d="M 333.867188 439.394531 L 434.132812 439.394531 L 434.132812 539.65625 L 333.867188 539.65625 Z M 333.867188 439.394531 "/></clipPath><clipPath id="e5c724076e"><path d="M 384 439.394531 C 356.3125 439.394531 333.867188 461.835938 333.867188 489.523438 C 333.867188 517.210938 356.3125 539.65625 384 539.65625 C 411.6875 539.65625 434.132812 517.210938 434.132812 489.523438 C 434.132812 461.835938 411.6875 439.394531 384 439.394531 Z M 384 439.394531 "/></clipPath><clipPath id="46a2e7fa2c"><path d="M 363.484375 509.203125 L 404.511719 509.203125 L 404.511719 621.710938 L 363.484375 621.710938 Z M 363.484375 509.203125 "/></clipPath><clipPath id="3e7b0e3b78"><path d="M 363.484375 529.824219 C 363.484375 518.496094 372.667969 509.308594 383.996094 509.308594 C 395.328125 509.308594 404.511719 518.496094 404.511719 529.824219 L 404.511719 601.195312 C 404.511719 612.527344 395.328125 621.710938 383.996094 621.710938 C 372.667969 621.710938 363.484375 612.527344 363.484375 601.195312 Z M 363.484375 529.824219 "/></clipPath><clipPath id="9ddc882602"><path d="M 137.902344 337.46875 L 629.824219 337.46875 L 629.824219 726.390625 L 137.902344 726.390625 Z M 137.902344 337.46875 "/></clipPath><clipPath id="47d4391cab"><path d="M 195 41.640625 L 573 41.640625 L 573 356 L 195 356 Z M 195 41.640625 "/></clipPath></defs><g id="83c6d4fd95"><g clip-rule="nonzero" clip-path="url(#d5351a0967)"><g clip-rule="nonzero" clip-path="url(#e5c724076e)"><path style=" stroke:none;fill-rule:nonzero;fill:#ffffff;fill-opacity:1;" d="M 333.867188 439.394531 L 434.132812 439.394531 L 434.132812 539.65625 L 333.867188 539.65625 Z M 333.867188 439.394531 "/></g></g><g clip-rule="nonzero" clip-path="url(#46a2e7fa2c)"><g clip-rule="nonzero" clip-path="url(#3e7b0e3b78)"><path style=" stroke:none;fill-rule:nonzero;fill:#ffffff;fill-opacity:1;" d="M 363.484375 621.710938 L 363.484375 509.363281 L 404.511719 509.363281 L 404.511719 621.710938 Z M 363.484375 621.710938 "/></g></g><g clip-rule="nonzero" clip-path="url(#9ddc882602)"><path style=" stroke:none;fill-rule:nonzero;fill:#000000;fill-opacity:1;" d="M 174.136719 356.667969 C 164.515625 356.667969 156.691406 364.496094 156.691406 374.121094 L 156.691406 690.136719 C 156.691406 699.761719 164.515625 707.59375 174.136719 707.59375 L 593.59375 707.59375 C 603.210938 707.59375 611.039062 699.761719 611.039062 690.136719 L 611.039062 374.121094 C 611.039062 364.496094 603.210938 356.667969 593.59375 356.667969 Z M 593.59375 726.390625 L 174.136719 726.390625 C 154.15625 726.390625 137.902344 710.125 137.902344 690.136719 L 137.902344 374.121094 C 137.902344 354.132812 154.15625 337.871094 174.136719 337.871094 L 593.59375 337.871094 C 613.570312 337.871094 629.824219 354.132812 629.824219 374.121094 L 629.824219 690.136719 C 629.824219 710.125 613.570312 726.390625 593.59375 726.390625 "/></g><g clip-rule="nonzero" clip-path="url(#47d4391cab)"><path style=" stroke:none;fill-rule:nonzero;fill:#000000;fill-opacity:1;" d="M 562.625 355.214844 C 557.4375 355.214844 553.230469 351.007812 553.230469 345.816406 L 553.230469 229.898438 C 553.230469 207.039062 548.75 184.847656 539.90625 163.925781 C 531.371094 143.738281 519.164062 125.621094 503.625 110.070312 C 488.085938 94.523438 469.980469 82.308594 449.804688 73.769531 C 428.890625 64.921875 406.703125 60.4375 383.863281 60.4375 C 361.019531 60.4375 338.835938 64.921875 317.925781 73.769531 C 297.753906 82.308594 279.644531 94.523438 264.105469 110.070312 C 248.5625 125.617188 236.359375 143.738281 227.824219 163.925781 C 218.980469 184.847656 214.496094 207.039062 214.496094 229.898438 L 214.496094 267.152344 C 214.496094 271.671875 216.253906 275.917969 219.449219 279.113281 C 222.644531 282.308594 226.890625 284.066406 231.40625 284.066406 C 240.730469 284.066406 248.3125 276.476562 248.3125 267.152344 L 248.3125 229.898438 C 248.3125 193.671875 262.414062 159.613281 288.015625 133.996094 C 313.617188 108.382812 347.65625 94.273438 383.863281 94.273438 C 420.070312 94.273438 454.109375 108.382812 479.714844 133.996094 C 505.316406 159.613281 519.414062 193.671875 519.414062 229.898438 L 519.414062 345.8125 C 519.414062 351.003906 515.210938 355.210938 510.019531 355.210938 C 504.832031 355.210938 500.628906 351.003906 500.628906 345.8125 L 500.628906 229.898438 C 500.628906 165.480469 448.25 113.070312 383.863281 113.070312 C 319.480469 113.070312 267.101562 165.480469 267.101562 229.898438 L 267.101562 267.152344 C 267.101562 286.84375 251.085938 302.867188 231.40625 302.867188 C 221.871094 302.867188 212.90625 299.152344 206.164062 292.40625 C 199.421875 285.660156 195.710938 276.691406 195.710938 267.152344 L 195.710938 229.898438 C 195.710938 204.511719 200.691406 179.851562 210.519531 156.601562 C 220 134.175781 233.558594 114.046875 250.820312 96.78125 C 268.078125 79.511719 288.195312 65.945312 310.609375 56.457031 C 333.847656 46.625 358.492188 41.640625 383.863281 41.640625 C 409.234375 41.640625 433.878906 46.625 457.121094 56.457031 C 479.535156 65.945312 499.652344 79.511719 516.910156 96.78125 C 534.167969 114.046875 547.726562 134.175781 557.207031 156.601562 C 567.035156 179.851562 572.019531 204.511719 572.019531 229.898438 L 572.019531 345.816406 C 572.019531 351.007812 567.8125 355.214844 562.625 355.214844 "/></g><path style=" stroke:none;fill-rule:nonzero;fill:#000000;fill-opacity:1;" d="M 409.066406 543.660156 C 405.75 543.660156 402.535156 541.902344 400.824219 538.785156 C 398.324219 534.238281 399.988281 528.523438 404.53125 526.023438 C 418.0625 518.582031 426.605469 504.382812 426.824219 488.960938 C 427.160156 465.476562 408.359375 445.914062 384.914062 445.359375 C 373.234375 445.082031 362.195312 449.421875 353.847656 457.578125 C 345.496094 465.738281 340.898438 476.660156 340.898438 488.335938 C 340.898438 504.019531 349.441406 518.464844 363.195312 526.023438 C 367.742188 528.523438 369.402344 534.238281 366.902344 538.785156 C 364.40625 543.335938 358.695312 544.996094 354.148438 542.496094 C 334.390625 531.628906 322.113281 510.878906 322.113281 488.335938 C 322.113281 471.554688 328.722656 455.855469 340.722656 444.128906 C 352.71875 432.40625 368.570312 426.171875 385.359375 426.566406 C 419.0625 427.367188 446.089844 455.476562 445.609375 489.230469 C 445.292969 511.398438 433.019531 531.808594 413.582031 542.496094 C 412.144531 543.285156 410.59375 543.660156 409.066406 543.660156 "/><path style=" stroke:none;fill-rule:nonzero;fill:#000000;fill-opacity:1;" d="M 383.863281 637.710938 C 364.792969 637.710938 349.277344 622.1875 349.277344 603.105469 L 349.277344 534.261719 C 349.277344 529.070312 353.484375 524.863281 358.671875 524.863281 C 363.859375 524.863281 368.066406 529.070312 368.066406 534.261719 L 368.066406 603.105469 C 368.066406 611.824219 375.152344 618.914062 383.863281 618.914062 C 392.578125 618.914062 399.664062 611.824219 399.664062 603.105469 L 399.664062 534.261719 C 399.664062 529.070312 403.871094 524.863281 409.058594 524.863281 C 414.246094 524.863281 418.449219 529.070312 418.449219 534.261719 L 418.449219 603.105469 C 418.449219 622.1875 402.933594 637.710938 383.863281 637.710938 "/></g></svg>